<?xml version="1.0" encoding="utf-8"?>
<!-- Generator: Adobe Illustrator 23.0.1, SVG Export Plug-In . SVG Version: 6.00 Build 0)  -->
<svg version="1.1" id="Слой_1" xmlns="http://www.w3.org/2000/svg" xmlns:xlink="http://www.w3.org/1999/xlink" x="0px" y="0px"
	 viewBox="0 0 429.4 162.4" style="enable-background:new 0 0 429.4 162.4;" xml:space="preserve">
<style type="text/css">
	.st0{fill:#FFFFFF;}
</style>
<g>
	<g>
		<g>
			<path class="st0" d="M429.2,126h-171v1.5c-0.5,0.3,11.3-0.5,28.7,11.5c1.9,1.3,3.8,2.5,5.7,3.7c-4,1.2-8.1,2.3-12.2,3.1
				c-1.9-1.6-3.9-3.3-5.9-4.9c-3-2.3-6.8-3.6-10.6-3.7c-3.4-0.1-7.9,0.2-10.4,2.7c-1.9,2-0.9,4.5,1.9,5.8c5.7,2.6,12.3,3.1,18.5,2.4
				c1.7-0.2,3.3-0.5,5-0.8c0.2,0.2,0.5,0.4,0.7,0.6c1.8,1.5,3.5,3,5.3,4.5c-8.1-0.4-12.7,0.3-20.7,1.8c-4.7,0.9-10.6,2.2-19.1,1.2
				c-3.6-0.4-8-2.5-10.8-4.2c0,0,1.8-2.1,2.6-3c4-5,4-13.4-4-15.6c-7.2-2-14.9,1.6-10,11c2.8,5.4,8.8,8.5,8.7,8.6
				c-2.2,1.8-5.6,3.6-8.8,4.6c-2.8,0.8-5.4,1.1-8,1c-2.4-0.1-4.6-0.4-6.5-1c-3.3-1-6.4-2.7-8.6-4.6c-0.1-0.1,5.9-3.2,8.7-8.6
				c4.9-9.4-2.9-13-10-11c-8,2.2-8,10.6-4,15.6c0.8,0.9,2.6,3,2.6,3c-2.8,1.7-7.2,3.8-10.8,4.2c-8.6,1-14.4-0.3-19.1-1.2
				c-8-1.5-12.6-2.2-20.7-1.8c1.8-1.5,3.6-3,5.3-4.5c0.2-0.2,0.5-0.4,0.7-0.6c1.7,0.3,3.3,0.6,5,0.8c6.2,0.7,12.8,0.2,18.5-2.4
				c2.8-1.3,3.9-3.8,1.9-5.8c-2.5-2.6-7-2.8-10.4-2.7c-3.8,0.1-7.6,1.4-10.6,3.7c-2,1.6-4,3.2-5.9,4.9c-4.1-0.8-8.2-1.9-12.2-3.1
				c1.9-1.2,3.9-2.4,5.7-3.7c17.4-12,29.2-11.2,28.8-11.5V126H2.2v1h163.6c-7.9,1-19,6.4-26.2,11c-1.3,0.8-3.8,2.3-5.1,3.1
				c-8.1-2.4-14.8-4.4-23.3-4.9c-8.6-0.4-17.3,1.7-24.2,6.6c-1.3,0.9-4.3,2.9-4.6,6.2c-0.2,1.9,1.4,3.8,2.9,4.6
				c3.6,2,8.8,2.4,12.7,2.3c6.4-0.3,12.5-1.5,18.5-3.5c6.6-2.2,9.9-3.8,14.6-6c2.1-1,4.1-2.1,6.1-3.3c4.1,1.2,8.1,2.4,12.2,3.4
				c-2.3,2-4.6,3.9-6.9,5.8c-4.4,0.4-9.3,0.3-12.8,2.9c-1.2,0.9-2.2,2.3-1.9,3.9c0.4,2,2.9,2.4,4.7,1.9c3.2-0.9,6.1-3.2,8.7-5.1
				c0.9-0.7,2.8-2.4,3.7-3.1c1.5-0.1,2.8-0.2,4.2-0.3c14.4-0.6,21.9,5.6,36.3,4.5c4.8-0.3,11.3-3.4,13.4-4.8
				c2.4,2.1,5.6,3.8,9.1,4.9c2.6,0.9,5.6,1.1,9.1,1c1.4-0.1,3.1-0.3,4.4-0.6c4.2-1.1,7.8-2.9,10.7-5.2c2.1,1.4,8.6,4.4,13.4,4.8
				c14.4,1,21.8-5.2,36.3-4.5c1.5,0.1,2.8,0.1,4.2,0.3c0.9,0.7,2.8,2.4,3.7,3.1c2.6,1.9,5.5,4.2,8.7,5.1c1.9,0.5,4.3,0.2,4.7-1.9
				c0.3-1.6-0.6-2.9-1.9-3.9c-3.5-2.6-8.4-2.6-12.8-2.9c-2.4-1.9-4.6-3.9-6.9-5.8c4.1-0.9,8.2-2.1,12.2-3.4c2,1.2,4,2.3,6.1,3.3
				c4.7,2.3,8,3.9,14.6,6c6,2,12.1,3.2,18.5,3.5c4,0.2,9.1-0.3,12.7-2.3c1.5-0.8,3.1-2.7,2.9-4.6c-0.3-3.3-3.4-5.3-4.6-6.2
				c-6.9-4.9-15.5-7.1-24.2-6.6c-8.5,0.4-15.3,2.4-23.3,4.8c-1.3-0.8-3.8-2.3-5.1-3.1C284,133.4,265,128,265,128h164.2V126z
				 M258.9,146.2c-1.5-0.5-6.8-2.3-5.8-4.8c0.6-1.7,4.7-2.2,6.1-2.4c4.5-0.5,8.7,0.1,12.4,2.9c1.8,1.4,4.1,2.6,5.8,4.1
				C271.4,146.9,264.7,148.2,258.9,146.2z M159.2,141.8c3.7-2.8,7.9-3.4,12.4-2.9c1.4,0.1,5.4,0.7,6.1,2.4c0.9,2.5-4.3,4.3-5.8,4.8
				c-5.8,2-12.5,0.7-18.5-0.2C155.1,144.4,157.4,143.1,159.2,141.8z M121.9,147.1c-6.6,2.5-12.3,4-19.2,5.3
				c-3.5,0.6-6.1,1.3-11.2,1.2c-1.8,0-6-0.3-7.4-2.3c-2.8-3.8,2.3-7,3.9-8c3.7-2.4,8.2-4.3,12.4-5.3c5.8-1.5,11.7-0.9,17-0.3
				c6,0.8,9.9,2.3,15.6,4.1C129.3,144,127.7,145,121.9,147.1z M138.5,155.3c-2.4,1.8-5.9,4.1-9,4.4c-1.9,0.2-1.1-3,0.6-4.1
				c2-1.3,4.5-1.9,7.5-2.3c0.8-0.1,3.6-0.4,4.4-0.4C141.5,153.2,139,154.9,138.5,155.3z M197.4,150.5c-2.9-2.1-5.5-5.7-5.2-9.2
				c0.4-6.1,4.9-7.5,8.7-7.6c2.1-0.1,4.5,0.6,5.7,2.6c0.9,1.6,0.2,4.6-0.7,6.3C203.9,146.1,200.9,148.5,197.4,150.5z M225,142.7
				c-0.9-1.7-1.6-4.7-0.7-6.3c1.2-2.1,3.6-2.7,5.7-2.6c3.7,0.1,8.3,1.5,8.7,7.6c0.3,3.5-2.3,7.1-5.2,9.2
				C229.9,148.6,226.9,146.2,225,142.7z M293.2,153.4c3,0.4,5.5,1,7.5,2.3c1.7,1.1,2.5,4.3,0.6,4.1c-3.1-0.3-6.6-2.6-9-4.4
				c-0.5-0.4-3-2.1-3.5-2.4C289.6,153,292.4,153.3,293.2,153.4z M313.4,137.9c5.3-0.7,11.1-1.2,17,0.3c4.2,1.1,8.8,3,12.4,5.3
				c1.6,1,6.7,4.3,3.9,8c-1.5,2-5.7,2.2-7.4,2.2c-5,0.1-7.6-0.6-11.2-1.2c-6.9-1.3-12.6-2.8-19.2-5.3c-5.8-2.2-7.4-3.1-11.1-5.3
				C303.5,140.2,307.5,138.6,313.4,137.9z"/>
			<polygon class="st0" points="288.2,131 407.2,131 407.2,131 288.2,131 			"/>
			<polygon class="st0" points="18.2,131 137.2,131 137.2,131 18.2,131 			"/>
		</g>
		<g>
			<path class="st0" d="M283.3,78c7.9-0.5,19.1-6.3,26.3-11.3c1.3-0.9,3.8-2.5,5.1-3.4c8.1,2.6,14.9,4.8,23.4,5.3
				c8.7,0.5,17.3-1.8,24.2-7.2c1.3-1,4.3-3.1,4.6-6.7c0.2-2.1-1.5-4.1-2.9-5c-3.6-2.1-8.8-2.6-12.8-2.4c-6.4,0.3-12.5,1.6-18.5,3.8
				c-6.6,2.4-9.9,4.1-14.6,6.5c-2.1,1.1-4.1,2.3-6.1,3.6c-4.1-1.3-8.1-2.6-12.3-3.7c2.3-2.1,4.6-4.3,6.9-6.3
				c4.4-0.4,9.3-0.3,12.9-3.2c1.2-1,2.2-2.4,1.9-4.2c-0.4-2.2-2.9-2.6-4.7-2c-3.2,1-6.1,3.4-8.7,5.5c-0.9,0.7-2.8,2.6-3.7,3.3
				c-1.5,0.1-2.8,0.2-4.2,0.3c-10.8,0.5-17.6-3-26.4-4.5c0.1,0.5,0.2,1,0.2,1.5c3.3,0.3,6.1,1,8.5,1.5c8,1.6,12.6,2.4,20.7,1.9
				c-1.8,1.6-3.6,3.2-5.4,4.9c-0.2,0.2-0.5,0.4-0.7,0.6c-1.7-0.3-3.3-0.6-5-0.9c-6.2-0.8-12.8-0.3-18.5,2.6
				c-2.8,1.4-3.9,4.1-1.9,6.2c2.5,2.8,7.1,3.1,10.4,3c3.8-0.1,7.6-1.5,10.6-4c2-1.7,4-3.5,5.9-5.3c4.1,0.9,8.2,2.1,12.2,3.4
				c-1.9,1.3-3.9,2.6-5.8,4c-17.5,13-29.3,12.1-28.9,12.5V80h153v-2H283.3z M327.8,59c6.6-2.5,12.3-4,19.2-5.3
				c3.5-0.7,6.1-1.3,11.2-1.2c1.8,0,6,0.3,7.4,2.3c2.8,3.8-2.3,7-3.9,8c-3.6,2.4-8.2,4.3-12.4,5.3c-5.8,1.5-11.7,0.9-17,0.3
				c-6-0.8-9.9-2.3-15.6-4.1C320.5,62.1,322,61.2,327.8,59z M311.2,50.8c2.4-1.8,5.9-4.1,9-4.4c1.9-0.2,1.1,3-0.6,4.1
				c-2,1.3-4.5,1.9-7.5,2.3c-0.8,0.1-3.6,0.3-4.4,0.5C308.2,52.9,310.7,51.2,311.2,50.8z M290.5,64.3c-3.7,2.8-7.9,3.4-12.4,2.9
				c-1.4-0.1-5.4-0.7-6.1-2.4c-1-2.5,4.3-4.3,5.8-4.8c5.8-2,12.5-0.7,18.5,0.2C294.6,61.8,292.3,63,290.5,64.3z"/>
			<path class="st0" d="M156.9,58.6c-5.7-2.9-12.3-3.4-18.5-2.6c-1.7,0.2-3.4,0.5-5,0.9c-0.2-0.2-0.5-0.4-0.7-0.6
				c-1.8-1.6-3.5-3.3-5.4-4.9c8.1,0.4,12.7-0.3,20.7-1.9c2.4-0.5,5.2-1.1,8.4-1.4c0.1-0.5,0.2-1,0.2-1.5c-8.7,1.4-15.6,5-26.3,4.5
				c-1.5-0.1-2.8-0.2-4.2-0.3c-0.9-0.7-2.8-2.6-3.7-3.3c-2.6-2.1-5.5-4.5-8.7-5.5c-1.9-0.6-4.3-0.2-4.7,2c-0.3,1.8,0.6,3.2,1.9,4.2
				c3.6,2.8,8.5,2.8,12.9,3.2c2.4,2,4.7,4.2,6.9,6.3c-4.1,1-8.2,2.3-12.3,3.7c-2-1.3-4-2.5-6.1-3.6c-4.7-2.5-8-4.2-14.6-6.5
				c-6-2.2-12.1-3.4-18.5-3.8c-4-0.2-9.2,0.3-12.8,2.4c-1.5,0.9-3.1,2.9-2.9,5c0.3,3.5,3.4,5.7,4.6,6.7c6.9,5.4,15.6,7.6,24.2,7.2
				c8.5-0.4,15.3-2.6,23.4-5.2c1.3,0.8,3.8,2.5,5.1,3.4c7.2,5,18.4,10.9,26.3,11.4H1.2v2h153v-1.6c0.5-0.3-11.4,0.5-28.8-12.5
				c-1.9-1.4-3.8-2.7-5.7-4c4-1.3,8.1-2.5,12.2-3.4c1.9,1.8,3.9,3.6,5.9,5.3c3,2.5,6.8,3.8,10.6,4c3.4,0.1,7.9-0.2,10.4-3
				C160.8,62.8,159.7,60.1,156.9,58.6z M118.8,52.7c-3-0.4-5.5-1-7.5-2.3c-1.7-1.1-2.4-4.3-0.6-4.1c3.1,0.3,6.6,2.6,9,4.4
				c0.5,0.4,3,2.1,3.5,2.5C122.4,53.1,119.6,52.8,118.8,52.7z M98.6,68.2c-5.3,0.7-11.2,1.2-17-0.3c-4.2-1.1-8.8-3-12.4-5.3
				c-1.6-1-6.7-4.3-3.9-8c1.4-2,5.7-2.2,7.4-2.2c5,0,7.6,0.6,11.2,1.2c6.9,1.3,12.6,2.8,19.2,5.3c5.8,2.2,7.3,3.1,11.1,5.3
				C108.5,65.9,104.6,67.5,98.6,68.2z M158.9,64.8c-0.6,1.7-4.7,2.2-6.1,2.4c-4.5,0.5-8.7-0.2-12.4-2.9c-1.8-1.3-4.1-2.6-5.8-4.1
				c6-0.9,12.7-2.3,18.5-0.2C154.6,60.5,159.9,62.3,158.9,64.8z"/>
		</g>
		<g>
			<path class="st0" d="M82.9,85.4c0,3.3-2.6,8.1-7.8,14.6c-2.4,2.9-5.1,5.9-8.2,8.9c-2.6,2.5-4.6,4.3-6.1,5.4
				c-0.2,0.1-0.3,0.2-0.5,0.2c-0.2,0-0.3-0.1-0.3-0.4c0-0.2,0.1-0.4,0.2-0.6c1.4-2,2.7-4.3,4-7.1c1.2-2.9,2.9-7.1,5.4-12.7
				c1.2-2.7,2.1-4.5,2.7-5.4L72,88.3c-0.5,0.8-2.1,2.8-4.8,6c-3.5,4-6.6,7.2-9.3,9.4c-8.6,7.2-16.8,10.8-24.7,10.8
				c-3.3,0-6-0.8-8-2.3c-2.2-1.6-3.3-3.7-3.3-6.5c0-3.6,2-6.6,5.8-9s8.8-3.6,14.6-3.6c5,0,9.2,0.9,12.6,2.7c0.1,0.1,0,0.3-0.1,0.4
				c-0.1,0.2-0.2,0.3-0.4,0.3c-3.5-1.6-7.3-2.4-11.3-2.4c-4.8,0-9.3,1.3-13.3,3.9c-4.1,2.6-6.2,5.6-6.2,8.9c0,2.1,0.9,3.8,2.8,5
				c1.7,1.2,3.8,1.7,6.1,1.7c4,0,8.3-1.1,13.1-3.3c4.8-2.2,9.1-5.2,13.1-8.9c3.5-3.3,7.3-7.4,11.2-12.3c1.7-2.2,3.5-4.4,5.2-6.7
				c0.4-0.4,0.9-0.7,1.4-0.7c0.3,0,0.4,0.2,0.4,0.5c0,0.1-0.2,0.4-0.6,0.9c-0.5,0.7-0.9,1.4-1.2,2.1c-1.1,3.4-2.8,8.2-5.2,14.3
				c-1.9,4-3.6,7.1-5.1,9.3h0.2c0.6-0.3,1.8-1.5,3.8-3.7c2.4-2.6,4.5-5.2,6.1-7.7c4.1-6,6.1-10.5,6.1-13.5c0-0.5-0.1-0.9-0.2-1.3
				c0.1-0.4,0.3-0.5,0.7-0.5C82.6,83.2,82.9,84.2,82.9,85.4z"/>
			<path class="st0" d="M87.3,101.5c0,0.1-0.1,0.3-0.3,0.5c-0.1,0.1-0.8,1.8-2.3,5.2c-1.3,3-1.9,4.8-1.9,5.4c0,0.4,0.2,0.7,0.5,0.7
				c0.7,0,1.8-0.9,3.3-2.8c0.1,0,0.2,0,0.4,0.1c0.1,0.1,0.2,0.2,0.2,0.4c-1.6,2.2-3.2,3.3-4.8,3.3c-1.4,0-2-0.7-2-2
				c0-0.5,0.2-1.3,0.7-2.6c-2.4,3.1-4.3,4.6-5.7,4.6c-1.5,0-2.2-0.9-2.2-2.7c0-2.6,1.3-5,3.8-7.3c2.4-2.2,4.9-3.3,7.5-3.3
				c1.3,0,2.2,0.1,2.8,0.3C87.2,101.4,87.3,101.4,87.3,101.5z M83.6,102.9c0-0.5-0.2-0.8-0.6-0.8c-1.2,0-2.8,1.4-4.8,4.2
				c-2,2.8-3,4.9-3,6.2c0,0.5,0.2,0.8,0.7,0.8c0.8,0,2.3-1.4,4.5-4.3c1-1.3,1.8-2.5,2.4-3.6C83.4,104.4,83.6,103.5,83.6,102.9z"/>
			<path class="st0" d="M95.2,101.7c-0.9,1.9-1.9,3.8-2.8,5.7c-1.5,3.1-2.3,4.9-2.3,5.4c0,0.4,0.2,0.6,0.5,0.6
				c0.4,0,1.1-0.4,1.9-1.1c0.7-0.6,1.3-1.1,1.6-1.6c0.1,0,0.2,0,0.3,0.1c0.1,0.1,0.2,0.2,0.2,0.4c-0.4,0.6-1,1.2-1.7,1.8
				c-1.2,1-2.2,1.5-3.2,1.5c-1.4,0-2.2-0.7-2.2-2.1c0-0.6,0.7-2.4,2-5.4c0.6-1.1,1.2-2.5,1.9-4.1c0.1-0.3,0-0.5-0.3-0.5
				c-0.6,0-0.9-0.2-0.9-0.7s0.2-0.6,0.7-0.6c1.2,0.1,2.4,0,3.6-0.2c0.2,0,0.4,0,0.5,0.2C95.3,101.3,95.3,101.5,95.2,101.7z M97,96.7
				c0,0.5-0.2,1-0.5,1.4s-0.8,0.7-1.3,0.7c-1,0-1.5-0.6-1.5-1.7c0-0.5,0.2-1,0.5-1.4S95,95,95.6,95C96.5,95,97,95.5,97,96.7z"/>
			<path class="st0" d="M110.7,90.8c0,0.8-0.4,2-1.2,3.5c-0.7,1.4-1.6,2.7-2.6,3.9c-1.8,2.2-3.7,4-5.8,5.3c-2.5,5.6-3.7,8.7-3.7,9.4
				c0,0.4,0.2,0.7,0.6,0.7c0.6,0,1.4-0.3,2.4-1c0.8-0.6,1.4-1,1.7-1.4c0.4,0.1,0.7,0.2,0.7,0.5c-0.4,0.5-1,1-1.7,1.6
				c-1.1,0.8-2.2,1.1-3.3,1.1c-1.5,0-2.3-0.7-2.3-2c0-1.1,0.8-3.5,2.4-7.2c1.4-3.3,2.7-6.1,3.9-8.2c1.2-2.1,2.4-3.8,3.8-5.3
				c1.6-1.7,2.9-2.5,4-2.5C110.3,89.2,110.7,89.8,110.7,90.8z M109.2,90.8c0-0.3-0.1-0.5-0.4-0.5c-0.3,0-1,0.7-2.1,2.2
				c-1,1.5-1.9,3-2.6,4.6l-2.2,4.8c1.8-1.5,3.3-3.2,4.5-5.1C108.3,93.9,109.2,91.9,109.2,90.8z"/>
			<path class="st0" d="M113.6,100c0,0.2-0.3,0.5-0.8,0.9s-0.8,0.9-0.8,1.5c0,0.5,0.1,1.1,0.4,1.7c0.2,0.7,0.4,1.4,0.4,2.2
				c0,2.3-0.7,4.1-2.1,5.7c-1.4,1.5-3.1,2.3-4.9,2.3c-1.8,0-2.7-0.8-2.7-2.5c0-0.8,0.2-1.4,0.6-1.9c0.4-0.5,0.8-0.7,1.3-0.7
				c1,0,1.5,0.5,1.5,1.5c0,0.6-0.2,1-0.6,1.4c-0.4,0.3-0.8,0.5-1.3,0.5c-0.3,0-0.4,0.1-0.3,0.3c0.1,0.5,0.6,0.8,1.3,0.8
				c1.2,0,2.3-0.8,3.2-2.3s1.4-3.3,1.4-5.3c0-0.6-0.1-1.1-0.4-1.3c-0.2-0.2-0.4-0.2-0.6,0c-0.6,0.7-1.4,1.5-2.2,2.3
				c-0.1,0.1-0.3,0-0.5-0.1c-0.2-0.1-0.2-0.3-0.2-0.4c0.7-0.7,1.8-1.9,3.3-3.8c0.6-0.8,1.2-1.6,1.8-2.4c0.6-0.7,1.1-1.1,1.6-1.1
				C113.3,99.3,113.6,99.6,113.6,100z"/>
			<path class="st0" d="M137.3,90.1c0,0.6-0.3,1.5-0.8,2.6c-0.6,1.3-1.5,2.6-2.6,3.8c-1.4,1.5-3.3,3.1-5.7,4.6
				c-0.4,0.9-0.8,1.7-1.1,2.6c1.7-1.8,3.2-2.8,4.5-2.8c1.6,0,2.4,0.9,2.4,2.6c0,2.2-1,4.6-2.9,7c-2,2.5-4,3.8-6,3.8
				c-0.9,0-1.7-0.2-2.2-0.7c-0.5-0.5-0.8-1.1-0.8-1.8c0-1.8,0.8-4.7,2.4-8.5c1.6-3.8,3.4-7.2,5.3-9.9c2.3-3.2,4.2-4.8,5.8-4.8
				C136.7,88.6,137.3,89.1,137.3,90.1z M131.4,103.2c0-0.6-0.2-0.9-0.7-0.9c-0.4,0-1.1,0.5-2.1,1.4c-1.1,1-2,2.2-2.8,3.4
				c-1.1,2.9-1.6,4.7-1.6,5.4c0,0.8,0.4,1.1,1,1.1c1.1,0,2.5-1.3,4-4C130.7,107,131.4,104.9,131.4,103.2z M135.7,90.3
				c0-0.5-0.2-0.7-0.6-0.7c-0.5,0-1.1,0.6-2,1.8s-1.7,2.7-2.5,4.5c-0.4,0.9-1,2.1-1.6,3.5c1.6-0.9,3-2.2,4.1-3.9
				C134.8,93.2,135.7,91.5,135.7,90.3z"/>
			<path class="st0" d="M146.7,101.8c-0.1,0.3-1.4,3.6-3.7,9.9c0.8-0.6,1.4-1.1,1.6-1.5c0.4,0,0.6,0.2,0.7,0.6
				c-0.5,0.6-1.5,1.3-2.9,2.3l-0.3,0.9c-0.9,2.3-2.2,4.5-3.9,6.5c-2,2.3-3.9,3.5-5.6,3.5c-1.2,0-1.8-0.6-1.8-1.8
				c0-0.7,0.4-1.6,1.2-2.6c0.8-1,1.8-1.9,3-2.8c0.8-0.6,2.3-1.5,4.5-2.8l1.3-3.3c-0.6,0.8-1.4,1.6-2.4,2.3c-1.2,1-2.1,1.5-2.8,1.5
				c-0.6,0-1.1-0.2-1.4-0.6c-0.4-0.4-0.6-0.9-0.6-1.5c0-0.8,0.7-2.5,2.1-4.9c1.5-2.7,2.3-4.2,2.3-4.6c0-0.5-0.2-0.7-0.6-0.7
				c-0.3,0-0.9,0.2-1.8,0.7c-0.3-0.1-0.5-0.3-0.6-0.6c0.6-0.8,1.7-1.2,3.2-1.2c1.4,0,2,0.6,2,1.8c0,0.6-0.8,2.4-2.4,5.3
				c-1.6,2.9-2.4,4.5-2.4,4.8s0.1,0.5,0.4,0.5c0.9,0,2.1-0.9,3.8-2.8c1.4-1.7,2.4-3,2.8-4.1l1.8-4.3c0.3-0.6,0.5-0.8,0.8-0.9
				c0.4-0.1,0.7-0.1,0.9-0.1c0.5,0,0.7,0.1,0.7,0.4C146.8,101.6,146.8,101.7,146.7,101.8z M139.1,115.3c-1.4,0.9-2.3,1.5-2.7,1.8
				c-0.9,0.8-1.7,1.6-2.4,2.6c-0.8,1.1-1.2,1.9-1.2,2.6c0,0.5,0.2,0.8,0.7,0.8c0.8,0,1.6-0.7,2.7-2.1c1-1.4,1.9-2.9,2.7-4.7
				L139.1,115.3z"/>
			<path class="st0" d="M195.7,90.1c0,4.2-1.6,8.3-4.8,12.2c-2.9,3.6-6.5,6.5-11.1,8.8c-4.5,2.3-8.8,3.4-12.9,3.4
				c-0.8,0-1.5-0.1-2.2-0.2c0.4,1,0.9,1.9,1.7,2.8c0,0.2-0.1,0.3-0.3,0.4s-0.4,0.2-0.6,0.1c-1-0.9-1.7-2.1-2-3.6
				c-4.4-1-6.6-3.9-6.6-8.5c0-4.1,1.6-8.1,4.9-12c2.9-3.5,6.7-6.3,11.3-8.6c4.5-2.2,8.7-3.2,12.7-3.2c2.6,0,4.7,0.3,6.1,0.9
				c0.1,0.1,0.1,0.3,0,0.4c-0.1,0.1-0.3,0.2-0.4,0.3c-1.3-0.5-3.2-0.7-5.7-0.7c-3.5,0-7.4,1.3-11.7,3.8c-4.1,2.5-7.6,5.6-10.4,9.3
				c-3,4-4.5,7.8-4.5,11.4c0,3,1.4,5,4.1,5.9c-0.2-0.9-0.3-1.9-0.3-3.1c0-4,1.2-8.1,3.5-12.3s5.4-7.5,9-10.2
				c3.9-2.8,7.9-4.2,11.9-4.2c2.6,0,4.6,0.7,6.1,2C195,86.8,195.7,88.3,195.7,90.1z M194,89.6c0-1.6-0.6-2.9-1.8-3.8
				s-2.8-1.3-4.6-1.3c-3.6,0-7.2,1.5-11,4.5c-3.5,2.8-6.4,6.3-8.8,10.4c-2.4,4.2-3.6,8.1-3.6,11.5c0,0.9,0.1,1.7,0.3,2.5
				c0.5,0.1,0.9,0.1,1.4,0.1c3.6,0,7.6-1.2,12.1-3.6c4.5-2.4,8.2-5.4,11.2-9C192.4,97.1,194,93.3,194,89.6z"/>
			<path class="st0" d="M202.1,103.3c0,0.7-0.2,1.3-0.6,1.7s-0.9,0.6-1.3,0.6c-0.9,0-1.3-0.4-1.3-1.2c0-0.4,0.2-0.8,0.7-1.1
				c0.4-0.4,0.7-0.6,0.7-0.8c0-0.3-0.1-0.4-0.4-0.4c-1,0-2.2,1.5-3.6,4.4c-1.3,2.8-1.9,4.8-1.9,6.1c0,0.6,0.3,0.9,0.8,0.9
				c0.7,0,1.6-0.5,2.7-1.4c0.9-0.8,1.5-1.4,1.9-2c0.1-0.1,0.3,0,0.4,0.1c0.2,0.1,0.2,0.3,0.2,0.5c-0.5,0.7-1.2,1.4-2,2.2
				c-1.3,1.1-2.5,1.6-3.6,1.6c-1.9,0-2.8-1.2-2.8-3.6c0-2.1,0.9-4.2,2.8-6.5c1.8-2.3,3.6-3.4,5.4-3.4
				C201.4,101,202.1,101.8,202.1,103.3z"/>
			<path class="st0" d="M217.7,91.1c0,1.7-1.2,4-3.7,6.7c-2.2,2.4-4.2,4.1-6,5.1c-0.7,1.7-1.5,3.6-2.3,5.6c0.9-1.2,2-2.5,3.4-4
				s2.5-2.4,3.1-2.8s1.3-0.6,1.9-0.6c0.3,0,0.5,0.2,0.5,0.5c0-0.1-0.2,0.3-0.6,1.1c-0.6,1.2-1.4,3-2.5,5.2c-1.2,2.8-1.9,4.5-1.9,4.9
				s0.2,0.7,0.7,0.7c1.1,0,2.1-0.9,3.2-2.8c0.5-0.2,0.8-0.1,0.8,0.3c-0.4,0.7-1,1.4-1.6,2.1c-1,0.9-1.9,1.4-2.9,1.4
				c-1.6,0-2.4-0.7-2.4-1.9c0-0.9,0.4-2.4,1.3-4.5c0.6-1.4,1.1-2.6,1.6-3.4l-0.1-0.2c-0.2,0.2-0.8,0.7-1.8,1.7
				c-1,1.1-1.8,2.1-2.4,2.9c-1.2,1.6-2,3-2.4,4.2c-0.1,0.4-0.9,0.8-2.4,1.2c-0.2,0.1-0.3,0-0.4-0.1c-0.1-0.1-0.1-0.4,0-0.7l6.8-16.3
				c0.9-2.1,2.1-4,3.6-5.7c1.7-1.8,3.2-2.7,4.5-2.7C217.2,89.1,217.7,89.7,217.7,91.1z M216,90.8c0-0.5-0.2-0.7-0.5-0.7
				c-0.7,0-1.7,1-2.9,2.9c-0.9,1.4-2.3,4.1-4,8.2c1.4-0.8,2.9-2.3,4.6-4.6C215.1,94.1,216,92.2,216,90.8z"/>
			<path class="st0" d="M225.6,102.9c0,1.9-1.1,3.6-3.2,5.1c-1.7,1.2-3.3,1.8-4.8,1.9c-0.4,0.9-0.5,1.6-0.5,2.1c0,1,0.5,1.5,1.6,1.5
				c0.9,0,1.8-0.4,2.9-1.2c0.9-0.6,1.5-1.3,2-1.9c0.4-0.2,0.6-0.1,0.7,0.4c-0.5,0.7-1.2,1.4-2,2c-1.4,1-2.7,1.5-4,1.5
				c-2.2,0-3.3-1.1-3.3-3.3c0-2.2,1-4.5,2.9-6.7s3.8-3.4,5.4-3.4C224.8,101,225.6,101.6,225.6,102.9z M223.7,102.7
				c0-0.6-0.2-0.8-0.6-0.8c-0.6,0-1.5,0.8-2.6,2.4c-1,1.4-1.9,3-2.7,4.7c1.3-0.1,2.6-0.8,3.9-2.3C223.1,105.3,223.7,104,223.7,102.7
				z"/>
			<path class="st0" d="M233,110.8c-0.4,0.7-0.9,1.4-1.6,2.1c-1.1,1-2.1,1.5-3,1.5c-0.6,0-1.2-0.2-1.6-0.6c-0.4-0.4-0.7-0.9-0.7-1.6
				c0-0.8,0.8-2.6,2.4-5.4c1.3-2.3,2-3.6,2-3.9c0-0.4-0.2-0.6-0.5-0.6c-0.4,0-0.8,0.3-1.3,0.9c-0.8,1.1-1.3,1.8-1.5,2
				c0,0-0.1,0-0.1,0c-0.1,0-0.3-0.1-0.4-0.2c-0.2-0.1-0.2-0.3-0.2-0.4c0.8-1,1.3-1.7,1.4-2c-0.4-0.9-0.6-1.6-0.6-2.3
				c0-1.4,0.5-2.1,1.6-2.1c0.9,0,1.4,0.5,1.4,1.5c0,0.7-0.1,1.2-0.3,1.5l0.1,0.1c0.9-0.3,1.5-0.5,1.9-0.5c0.7,0,1.1,0.5,1.1,1.6
				c0,0.6-0.3,1.4-0.8,2.5c0,0.1-0.6,1.1-1.6,2.9c-0.6,0.9-1.1,1.9-1.6,2.8s-0.8,1.6-0.8,2c0,0.4,0.2,0.7,0.5,0.7
				c0.5,0,1.3-0.4,2.2-1.4c0.6-0.6,1.2-1.2,1.7-1.8C233,110.3,233.1,110.5,233,110.8z"/>
			<path class="st0" d="M244.3,102.9c0,1.9-1.1,3.6-3.2,5.1c-1.7,1.2-3.3,1.8-4.8,1.9c-0.4,0.9-0.5,1.6-0.5,2.1c0,1,0.5,1.5,1.6,1.5
				c0.9,0,1.8-0.4,2.9-1.2c0.9-0.6,1.5-1.3,2-1.9c0.4-0.2,0.6-0.1,0.7,0.4c-0.5,0.7-1.2,1.4-2,2c-1.4,1-2.7,1.5-4,1.5
				c-2.2,0-3.3-1.1-3.3-3.3c0-2.2,1-4.5,2.9-6.7s3.8-3.4,5.5-3.4C243.5,101,244.3,101.6,244.3,102.9z M242.5,102.7
				c0-0.6-0.2-0.8-0.6-0.8c-0.6,0-1.5,0.8-2.6,2.4c-1,1.4-1.9,3-2.7,4.7c1.3-0.1,2.6-0.8,3.9-2.3C241.8,105.3,242.5,104,242.5,102.7
				z"/>
			<path class="st0" d="M254.2,96l-2.8,6.1h2c0,0,0.6-0.1,0.6,0.3c0,0.4-0.6-0.3-0.6-0.3h-2.5l-4,9.5c-0.2,0.5-0.4,0.9-0.4,1.3
				c0,0.6,0.2,0.9,0.6,0.9c0.8,0,1.9-0.8,3.3-2.4c0.3-0.1,0.5,0,0.7,0.2c-1.4,2-2.9,3-4.5,3c-1.7,0-2.5-0.7-2.5-2.1
				c0-0.5,0.1-1.1,0.4-1.6l3.7-7.7h-1.8c0,0-0.6-0.3-0.6-0.7c0-0.4,0.2-0.6,0.6-0.3h2.4l2.7-6.1c0.3-0.6,0.8-0.8,1.5-0.8
				c0.8,0,1.2,0.2,1.2,0.5C254.2,95.7,254.2,95.8,254.2,96z"/>
			<path class="st0" d="M265.8,101.8c-0.1,0.3-1.4,3.6-3.7,9.9c0.8-0.6,1.4-1.1,1.6-1.5c0.4,0,0.6,0.2,0.7,0.6
				c-0.5,0.6-1.5,1.3-2.9,2.3l-0.3,0.9c-0.9,2.3-2.2,4.5-3.9,6.5c-2,2.3-3.9,3.5-5.6,3.5c-1.2,0-1.8-0.6-1.8-1.8
				c0-0.7,0.4-1.6,1.2-2.6s1.8-1.9,3-2.8c0.8-0.6,2.3-1.5,4.5-2.8l1.3-3.3c-0.6,0.8-1.4,1.6-2.4,2.3c-1.2,1-2.1,1.5-2.8,1.5
				c-0.6,0-1.1-0.2-1.5-0.6c-0.4-0.4-0.6-0.9-0.6-1.5c0-0.8,0.7-2.5,2.1-4.9c1.5-2.7,2.3-4.2,2.3-4.6c0-0.5-0.2-0.7-0.6-0.7
				c-0.3,0-0.9,0.2-1.8,0.7c-0.3-0.1-0.5-0.3-0.6-0.6c0.6-0.8,1.7-1.2,3.2-1.2c1.4,0,2,0.6,2,1.8c0,0.6-0.8,2.4-2.4,5.3
				c-1.6,2.9-2.4,4.5-2.4,4.8s0.1,0.5,0.4,0.5c0.9,0,2.1-0.9,3.8-2.8c1.4-1.7,2.4-3,2.8-4.1l1.8-4.3c0.3-0.6,0.5-0.8,0.8-0.9
				c0.4-0.1,0.7-0.1,0.9-0.1c0.5,0,0.7,0.1,0.7,0.4C265.9,101.6,265.8,101.7,265.8,101.8z M258.1,115.3c-1.4,0.9-2.3,1.5-2.7,1.8
				c-0.9,0.8-1.7,1.6-2.4,2.6c-0.8,1.1-1.2,1.9-1.2,2.6c0,0.5,0.2,0.8,0.7,0.8c0.8,0,1.6-0.7,2.7-2.1c1-1.4,1.9-2.9,2.7-4.7
				L258.1,115.3z"/>
			<path class="st0" d="M279.6,101.5c0,0.1-0.1,0.3-0.3,0.5c-0.1,0.1-0.8,1.8-2.3,5.2c-1.3,3-2,4.8-2,5.4c0,0.4,0.2,0.7,0.5,0.7
				c0.7,0,1.8-0.9,3.3-2.8c0.1,0,0.2,0,0.4,0.1s0.2,0.2,0.1,0.4c-1.6,2.2-3.2,3.3-4.8,3.3c-1.4,0-2-0.7-2-2c0-0.5,0.2-1.3,0.7-2.6
				c-2.4,3.1-4.3,4.6-5.7,4.6c-1.5,0-2.2-0.9-2.2-2.7c0-2.6,1.3-5,3.8-7.3c2.4-2.2,4.9-3.3,7.5-3.3c1.3,0,2.2,0.1,2.8,0.3
				C279.6,101.4,279.6,101.4,279.6,101.5z M275.9,102.9c0-0.5-0.2-0.8-0.6-0.8c-1.2,0-2.8,1.4-4.8,4.2c-2,2.8-3,4.9-3,6.2
				c0,0.5,0.2,0.8,0.7,0.8c0.8,0,2.3-1.4,4.5-4.3c1-1.3,1.8-2.5,2.4-3.6C275.7,104.4,275.9,103.5,275.9,102.9z"/>
			<path class="st0" d="M293.4,101.6c0-0.1-0.2,0.3-0.6,1.1c-0.6,1.2-1.4,3-2.4,5.2c-1.3,2.8-1.9,4.5-1.9,4.9s0.3,0.7,0.8,0.7
				c1,0,2.1-0.9,3.2-2.8c0.5-0.2,0.8-0.1,0.8,0.3c-0.4,0.7-0.9,1.4-1.6,2.1c-1,0.9-2,1.4-2.9,1.4c-1.6,0-2.5-0.7-2.5-1.9
				c0-0.9,0.5-2.4,1.3-4.5c0.6-1.4,1.2-2.6,1.7-3.4l-0.2-0.2c-0.7,0.4-2.1,1.9-4.2,4.6c-1.4,1.8-2.5,3.2-3.3,4.4
				c-0.4,0.6-1,0.9-1.8,0.9c-0.4,0-0.5-0.2-0.5-0.5c0-0.1,0.8-1.8,2.4-5.2c1.4-3,2.1-4.8,2.1-5.3s-0.2-0.8-0.6-0.8
				c-0.1,0-0.7,0.2-1.7,0.5c-0.3-0.1-0.4-0.3-0.3-0.7c1.1-0.8,2.3-1.2,3.5-1.2c0.4,0,0.8,0.1,1.1,0.4c0.3,0.3,0.5,0.7,0.5,1.2
				c0,0.9-0.7,2.8-2.2,5.8l0.2,0.1c0.8-1.2,2-2.5,3.5-4s2.5-2.5,3.2-2.8c0.6-0.4,1.3-0.6,2-0.6C293.2,101.1,293.4,101.2,293.4,101.6
				z"/>
			<path class="st0" d="M307.7,101.5c0,0.1-0.1,0.3-0.3,0.5c-0.1,0.1-0.8,1.8-2.3,5.2c-1.3,3-2,4.8-2,5.4c0,0.4,0.2,0.7,0.5,0.7
				c0.7,0,1.8-0.9,3.3-2.8c0.1,0,0.2,0,0.4,0.1s0.2,0.2,0.1,0.4c-1.6,2.2-3.2,3.3-4.8,3.3c-1.4,0-2-0.7-2-2c0-0.5,0.2-1.3,0.7-2.6
				c-2.4,3.1-4.3,4.6-5.7,4.6c-1.5,0-2.2-0.9-2.2-2.7c0-2.6,1.3-5,3.8-7.3c2.4-2.2,4.9-3.3,7.5-3.3c1.3,0,2.2,0.1,2.8,0.3
				C307.6,101.4,307.7,101.4,307.7,101.5z M304,102.9c0-0.5-0.2-0.8-0.6-0.8c-1.2,0-2.8,1.4-4.8,4.2c-2,2.8-3,4.9-3,6.2
				c0,0.5,0.2,0.8,0.7,0.8c0.8,0,2.3-1.4,4.5-4.3c1-1.3,1.8-2.5,2.4-3.6C303.7,104.4,304,103.5,304,102.9z"/>
			<path class="st0" d="M371.6,83.1c-1.4,2.1-3.8,6.5-7.1,13.2c-1.8,3.9-3.7,7.7-5.5,11.6c-2.2,4.5-4,7.6-5.5,9.4
				c-3.8,4.6-7.7,6.9-11.8,6.9c-1.1,0-2-0.3-2.7-1c-0.7-0.6-1.1-1.5-1.1-2.6c0-0.8,0.2-1.5,0.7-1.9c0.5-0.5,1.1-0.7,1.8-0.7
				c0.6,0,1.1,0.2,1.6,0.6c0.4,0.4,0.6,1,0.6,1.6c0,0.6-0.2,1.1-0.6,1.5s-0.9,0.6-1.5,0.6c-0.4,0-0.5,0.1-0.6,0.2s0,0.3,0.3,0.4
				c0.2,0.2,0.7,0.3,1.4,0.3c3,0,6-2.2,9.2-6.6c1.1-1.6,2.7-4.4,4.8-8.5c1.7-3.3,3.3-6.5,5-9.8c-2.6,3.2-4.9,5.8-6.8,7.8
				c-5.2,5.5-9.2,8.2-12.1,8.2c-2.1,0-3.1-1.1-3.1-3.3c0-1.5,1.1-4.1,3.3-7.7c2-3.1,4-6.2,6.1-9.4c2.2-3.5,3.3-5.9,3.3-7.3
				c0-2.4-1.7-3.6-5.1-3.6c-4.7,0-9.3,1.2-13.8,3.6c-3.8,2.1-7,4.6-9.6,7.7c-2.4,2.9-3.6,5.3-3.6,7.3c0,1.3,0.4,2.2,1.1,2.9
				c0.7,0.6,1.5,0.9,2.5,0.9c4.5,0,8.8-1.8,13.1-5.5c2.1-1.8,4.2-4,6.1-6.5c1.8-2.3,2.9-4.1,3.3-5.2c0.4-0.5,0.7-0.4,0.9,0.2
				c-0.4,1.3-1.3,3-2.9,5.3c-2,2.9-4.3,5.3-6.8,7.3c-4.6,3.6-9,5.4-13.2,5.4c-3.7,0-5.5-1.7-5.5-5.2c0-2.5,1.2-5.3,3.7-8.4
				s5.6-5.6,9.5-7.6c4.3-2.3,8.6-3.4,13.1-3.4c6.3,0,9.4,2,9.4,6c0,2.1-1.1,5-3.4,8.7c-0.9,1.5-3,4.6-6.3,9.4
				c-2.3,3.3-3.4,5.3-3.4,6c0,0.8,0.5,1.2,1.5,1.2c2.4,0,6.1-2.7,11.2-8.2c5.7-6.1,9.5-10.8,11.4-14.1l4.5-8c0-0.1,0.6-0.3,1.6-0.5
				c0.8-0.2,1.1-0.1,1.1,0.3C371.8,82.9,371.7,83,371.6,83.1z"/>
			<path class="st0" d="M375.9,101.5c0,0.1-0.1,0.3-0.3,0.5c-0.1,0.1-0.8,1.8-2.3,5.2c-1.3,3-2,4.8-2,5.4c0,0.4,0.2,0.7,0.5,0.7
				c0.7,0,1.8-0.9,3.3-2.8c0.1,0,0.2,0,0.4,0.1s0.2,0.2,0.1,0.4c-1.6,2.2-3.2,3.3-4.8,3.3c-1.4,0-2-0.7-2-2c0-0.5,0.2-1.3,0.7-2.6
				c-2.4,3.1-4.3,4.6-5.7,4.6c-1.5,0-2.2-0.9-2.2-2.7c0-2.6,1.3-5,3.8-7.3c2.4-2.2,4.9-3.3,7.5-3.3c1.3,0,2.2,0.1,2.8,0.3
				C375.9,101.4,375.9,101.4,375.9,101.5z M372.3,102.9c0-0.5-0.2-0.8-0.6-0.8c-1.2,0-2.8,1.4-4.8,4.2c-2,2.8-3,4.9-3,6.2
				c0,0.5,0.2,0.8,0.7,0.8c0.8,0,2.3-1.4,4.5-4.3c1-1.3,1.8-2.5,2.4-3.6C372,104.4,372.3,103.5,372.3,102.9z"/>
			<path class="st0" d="M389.7,101.6c0-0.1-0.2,0.3-0.6,1.1c-0.6,1.2-1.4,3-2.4,5.2c-1.3,2.8-1.9,4.5-1.9,4.9s0.3,0.7,0.8,0.7
				c1,0,2.1-0.9,3.2-2.8c0.5-0.2,0.8-0.1,0.8,0.3c-0.4,0.7-0.9,1.4-1.6,2.1c-1,0.9-2,1.4-2.9,1.4c-1.6,0-2.5-0.7-2.5-1.9
				c0-0.9,0.5-2.4,1.3-4.5c0.6-1.4,1.2-2.6,1.7-3.4l-0.2-0.2c-0.7,0.4-2.1,1.9-4.2,4.6c-1.4,1.8-2.5,3.2-3.3,4.4
				c-0.4,0.6-1,0.9-1.8,0.9c-0.4,0-0.5-0.2-0.5-0.5c0-0.1,0.8-1.8,2.4-5.2c1.4-3,2.1-4.8,2.1-5.3s-0.2-0.8-0.6-0.8
				c-0.1,0-0.7,0.2-1.7,0.5c-0.3-0.1-0.4-0.3-0.3-0.7c1.1-0.8,2.3-1.2,3.5-1.2c0.4,0,0.8,0.1,1.1,0.4c0.3,0.3,0.5,0.7,0.5,1.2
				c0,0.9-0.7,2.8-2.2,5.8l0.2,0.1c0.8-1.2,2-2.5,3.5-4s2.5-2.5,3.2-2.8c0.6-0.4,1.3-0.6,2-0.6C389.5,101.1,389.7,101.2,389.7,101.6
				z"/>
			<path class="st0" d="M404,101.5c0,0.1-0.1,0.3-0.3,0.5c-0.1,0.1-0.8,1.8-2.3,5.2c-1.3,3-2,4.8-2,5.4c0,0.4,0.2,0.7,0.5,0.7
				c0.7,0,1.8-0.9,3.3-2.8c0.1,0,0.2,0,0.4,0.1s0.2,0.2,0.1,0.4c-1.6,2.2-3.2,3.3-4.8,3.3c-1.4,0-2-0.7-2-2c0-0.5,0.2-1.3,0.7-2.6
				c-2.4,3.1-4.3,4.6-5.7,4.6c-1.5,0-2.2-0.9-2.2-2.7c0-2.6,1.3-5,3.8-7.3c2.4-2.2,4.9-3.3,7.5-3.3c1.3,0,2.2,0.1,2.8,0.3
				C403.9,101.4,404,101.4,404,101.5z M400.3,102.9c0-0.5-0.2-0.8-0.6-0.8c-1.2,0-2.8,1.4-4.8,4.2c-2,2.8-3,4.9-3,6.2
				c0,0.5,0.2,0.8,0.7,0.8c0.8,0,2.3-1.4,4.5-4.3c1-1.3,1.8-2.5,2.4-3.6C400.1,104.4,400.3,103.5,400.3,102.9z"/>
		</g>
	</g>
	<g>
		<g>
			<path class="st0" d="M213,54.6c0.5,0.7,1.5,1,3,1.2c1.5,0.1,2.3,0.2,2.3,0.2c0.3,0.1,0.7,0.2,1.3,0.3s1,0.3,1.3,0.3
				c0.1,0,0.3,0.1,0.7,0.3c0.4,0.2,0.7,0.3,0.9,0.3l-0.5,1.8c-0.2,0-0.4-0.1-0.8-0.3s-0.7-0.3-0.9-0.3c-0.3,0-1-0.1-2-0.2
				s-1.8-0.2-2.1-0.2c-0.6,0-1,0-1.3,0s-0.7,0-1.1,0.1c-0.9,0-1.6-0.3-2-0.8L174.2,9.6v28.8c-0.2,2-0.1,4.2,0.2,6.6
				c0.1,0.7,0.2,1.6,0.3,2.7s0.3,2.1,0.3,2.7c0.1,0.8,0.2,1.3,0.2,1.7s0.1,1,0.3,1.9c0.1,0.7,0.2,1.3,0.4,1.8
				c0.4,0.2,0.9,0.2,1.4,0.2c0.3,0,0.6,0.1,0.9,0.1c0.3,0,0.6,0.1,1,0.1c0.7,0.1,1.3,0.2,1.8,0.3l-0.1,2c-0.5-0.2-1-0.2-1.5-0.2
				c-1-0.1-1.7-0.2-2.3-0.2c-0.4-0.1-1.4-0.1-3.2-0.1l-1.6-12.8l-1.9,12.6c-0.3,0.1-0.5,0.1-0.7,0.2c-0.2,0-0.5,0.1-0.9,0.2
				c-0.3,0-0.7,0.1-1.1,0.2c-0.4,0.1-0.8,0.2-1.1,0.3c-0.2,0.1-0.4,0.2-0.7,0.3c-0.3,0.1-0.6,0.2-0.7,0.3s-0.4,0.1-0.6,0.2
				c-0.2,0.1-0.3,0.1-0.4,0.1c-0.1,0-0.3,0.1-0.5,0.1l-0.1-2c0.2,0,0.3-0.1,0.6-0.1c0.2-0.1,0.4-0.1,0.5-0.1
				c0.4-0.2,0.8-0.3,1.2-0.5s0.8-0.3,1-0.4c0.3-0.1,0.5-0.2,0.7-0.3c0.2-0.1,0.5-0.2,0.9-0.3c0.1-0.3,0.1-0.4,0.1-0.6
				c0-0.1,0.1-0.3,0.2-0.6c0.3-1.3,0.5-2.4,0.7-3.5c0.1-0.8,0.2-1.4,0.3-1.8c0.1-0.4,0.2-1,0.3-1.9c0.3-1.8,0.7-3.7,1-5.5
				c0.3-1.8,0.5-3.5,0.3-5V6c-0.6-1.4-1.7-2.4-3.2-2.9c-0.5-0.2-1.3-0.3-2.5-0.4c-0.3-0.1-0.6-0.1-1.1-0.1l0.1-2c0.4,0,0.6,0,0.9,0
				s0.4,0,0.7,0.1c0.6,0.1,1,0.1,1.4,0.2c0.4,0.1,0.7,0.1,1.1,0.2c1,0.1,2.3,0.5,3.7,1.2L213,54.6z M185,10.6
				c0.2,0.2,0.4,0.5,0.6,0.8s0.6,0.8,0.9,1.2l1.2,1.4l24.5,31.1l0.3-25.3c0-0.9-0.3-2.8-0.9-5.5c-0.6-2.8-0.9-4.4-1-4.7
				c-0.1-0.7-0.3-1.8-0.6-3.5c-0.1-0.3-0.1-0.5-0.2-0.6c0-0.1-0.1-0.3-0.1-0.6c-0.3-0.1-0.5-0.2-0.7-0.3c-0.2-0.1-0.5-0.2-0.9-0.3
				c-0.4-0.2-0.8-0.3-1.2-0.5c-0.4-0.1-0.7-0.3-1.1-0.4c-0.1,0-0.3-0.1-0.5-0.1c-0.2-0.1-0.4-0.1-0.5-0.1l0.1-2
				c0.2,0.1,0.4,0.1,0.5,0.1c0.1,0,0.2,0.1,0.4,0.1c0.7,0.3,1.4,0.5,2.1,0.8c0.5,0.1,1,0.2,1.3,0.3c0.3,0.1,0.6,0.1,0.9,0.2
				c0.3,0.1,0.5,0.1,0.7,0.2s0.5,0.1,0.8,0.2l1.9,12.6L215.1,3c1.7,0,2.8,0,3.2-0.1c0.5,0,1.3-0.1,2.2-0.2c0.5,0,1-0.1,1.5-0.2
				l0.1,2c-0.5,0.1-1.1,0.2-1.8,0.3c-0.1,0-0.3,0.1-0.5,0.1c-0.2,0-0.5,0-0.7,0s-0.4,0-0.6,0.1c-0.5,0-1,0.1-1.4,0.2
				c-0.2,0.4-0.3,1-0.4,1.8c-0.4,1.8-0.6,3-0.6,3.4c-0.1,1.3-0.2,2.4-0.3,3.3c-0.1,0.9-0.2,1.7-0.2,2.3c-0.3,2.4-0.4,4.6-0.4,6.6
				l-0.4,29.9l-31.9-41.2c-1.2-1.6-2.4-3.2-3.4-4.9c-0.5-0.7-0.8-1.3-1.1-1.7c-0.3-0.4-0.5-0.9-0.6-1.3c-0.2-0.6-0.4-1.2-0.5-2
				c0.3,0,0.5,0,0.8-0.1c0.2,0,0.6,0,0.9,0c1.3-0.1,2.3-0.2,2.9-0.2c0.3-0.1,0.5-0.1,0.8-0.1c0.3,0,0.6,0,0.8-0.1
				c0.2,0,0.5,0,0.8-0.1h1.1l-0.1,1.6c-0.4,0.2-0.7,0.2-1,0.2c-0.3,0.1-0.5,0.1-0.7,0.2c-0.2,0.1-0.4,0.1-0.7,0.2
				c-0.5,0.2-0.9,0.3-1.1,0.4c-0.2,0.1-0.2,0.4-0.2,0.9c0,0.3,0.1,0.6,0.3,1c0.2,0.4,0.4,0.9,0.7,1.3c0.3,0.4,0.5,0.8,0.6,1.1
				C183.5,8.5,184.1,9.4,185,10.6z"/>
		</g>
		<g>
			<path class="st0" d="M221.3,70.6c3.1-0.1,5.9-0.6,8.5-1.6c2.6-1,4.8-2.5,6.8-4.6c1.9-2,3.5-4.5,4.5-7.6s1.6-6.5,1.6-10.5
				c0-1.2,0-2.1-0.1-2.7c-0.1-2.7-0.6-5.5-1.4-8.7s-2.4-6.4-4.7-9.8c-2.4-3.4-5.8-6.1-10.1-8.2c3.9,0.7,7.4,2.3,10.3,5
				c2.9,2.6,5.2,5.8,6.7,9.6c1.5,3.8,2.4,7.8,2.5,12.2c0,4.9-0.6,9.2-2,12.9c-1.3,3.7-3.1,6.7-5.4,9.1c-2.3,2.4-5,4.1-8,5.3
				c-3,1.2-6.1,1.7-9.4,1.8c-5.5,0-10.4-1.4-14.8-4.1s-7.9-6.5-10.4-11.3c-2.5-4.8-3.8-10.2-3.8-16c0.2-3.6,0.7-6.7,1.6-9.4
				c0.9-2.7,2-4.8,3.1-6.5c1.2-1.7,2.3-3,3.4-4c-1.1,2.2-2.1,4.3-2.9,6.2c-0.8,1.9-1.3,4-1.7,6.1c-0.4,2.2-0.6,4.5-0.6,7.2
				c0.1,5.5,1.2,10.5,3.4,15c2.2,4.5,5.3,8,9.2,10.6C211.7,69.3,216.2,70.6,221.3,70.6z M223.3,12.4c5.6,0.2,10.6,1.7,14.8,4.5
				c4.2,2.8,7.5,6.6,9.8,11.4s3.5,10,3.5,15.8c-0.1,4.2-0.8,7.8-2,10.8c-1.2,3-2.5,5.3-3.8,6.8c-1.4,1.5-2.6,2.7-3.9,3.5
				c3.6-4.6,5.8-10.3,6.4-17.1c0.1-1.6,0.2-2.7,0.2-3.5c0-4.1-0.6-7.9-1.9-11.5s-3-6.7-5.3-9.4c-2.3-2.7-5-4.8-8.1-6.4
				s-6.4-2.5-9.8-2.6c-4.9,0-8.9,0.9-11.9,2.7c-3.1,1.8-5.4,4.1-7,6.8c-1.6,2.7-2.6,5.4-3.1,8.1c-0.5,2.7-0.8,5.3-0.8,7.7
				c0.3,12.7,5.5,22,15.5,27.9c-3-0.7-5.7-2-8-3.8s-4.3-4-5.8-6.6s-2.7-5.4-3.6-8.4s-1.2-6.2-1.2-9.4c0.1-4.2,0.9-8.3,2.4-12.4
				s4.2-7.6,8.1-10.5S216.9,12.4,223.3,12.4z"/>
		</g>
		<g>
			<path class="st0" d="M223.2,35l22,32.9v12.2v7.2v3.7c-1.1,0.1-2.3,0.3-3.5,0.6c-1.2,0.3-2.3,0.6-3.5,1.1v-1.4c0,0,1-0.7,2.5-1.3
				c0.1-0.1,0.3-0.1,0.4-0.2c0.1-0.1,0.3-0.1,0.4-0.2c0.1-0.1,0.2-0.1,0.3-0.2c0,0,0.2-0.1,0.4-0.2c0-0.5,0.1-0.9,0.1-1.3
				c0-0.3,0-1.1,0-1.1v-7.7V68.7l-17.9-27.6c-0.4-0.5-0.7-1-0.9-1.2c-0.2-0.2-0.6-0.8-1.3-1.8c-0.7-1-1.2-1.7-1.3-1.9
				c-0.5,0-0.8,0-1-0.1c-0.9,0-1.6,0-2-0.1c-0.2,0-0.4,0-0.6-0.1c-0.2,0-0.5,0-0.8,0v-1.2c1.3,0,2.7,0.1,4.3,0.1c0.9,0,1.6,0,2,0.2
				L223.2,35L223.2,35z M247.1,62.4l5.7-8.6c0.4-0.7,0.9-1.4,1.2-2.3c0.2-0.4,0.5-0.8,0.8-1.4s0.7-1.1,1-1.7
				c2.4-4.5,3.6-8.6,3.6-12.4c-0.2,0-0.5,0-0.7-0.1c-0.2,0-0.5,0-0.9,0c-0.5,0-1-0.1-1.3-0.1s-0.7,0-1.1-0.1c-0.6,0-1.1,0-1.4-0.1
				l-0.1-1.2c0.5,0,1,0,1.4,0.1c0.4,0,0.9,0,1.5,0.1c0.6,0,1.2,0.1,1.8,0.5h2.2c0.3-0.4,0.5-0.3,0.6-0.3c0.2,0,0.7,0.1,0.7,0.1v0.5
				c0,0-0.2,0.7-0.3,0.9c0,0.6,0,1-0.1,1.4c-0.2,1.3-0.7,3.1-1.7,5.4L266,35h1.5h1.9c0.2-0.4,2.1,0,2.1,0h0.9l-0.3,0.6
				c-0.6,0.1-2,0.2-4.3,0.2c-0.3,0.3-0.9,0.9-1.5,1.8c-0.8,0.9-2,2.6-3.7,4.9c-0.4,0.5-0.8,1-1,1.4c-0.2,0.2-0.3,0.4-0.4,0.5
				s-0.2,0.3-0.4,0.4L247,66l-13.4-19.2c-0.2-0.4-0.5-0.8-0.7-1.2c-0.6-1-1.1-1.8-1.5-2.3c-0.3-0.5-0.6-0.9-0.8-1.3
				c-1.7-2.5-4.1-7-4.1-7h2.5c0,0,1.9-0.3,3.4-0.3c0.3,0,0.8,0,1.5-0.1c0.7,0,1.2-0.1,1.5-0.1c0.7,0,1.2,0,1.4-0.1l0.2,1.2
				c-0.3,0-0.8,0.1-1.4,0.1c-0.5,0-1.2,0-2.1,0.2c-0.5,0-0.9,0-1.3,0.1c-0.4,0-0.8,0-1.4,0.1c0.2,0.4,0.4,0.9,0.6,1.4
				s0.4,0.9,0.6,1.4c0.4,0.7,0.7,1.2,0.9,1.7c0.2,0.5,0.5,1,0.8,1.5c0.3,0.4,0.5,0.8,0.8,1.3s0.5,0.8,0.7,1.3
				c0.2,0.3,0.3,0.5,0.4,0.7c0.1,0.2,0.2,0.4,0.4,0.6L247.1,62.4z M248.2,68.5l3-4.7v14.9c0,1.5,0,2.7,0,3.6c0,0.9,0,1.9-0.1,3
				c0.1,1,0.1,2.5,0.1,4.5c0.2,0,0.7,0.1,1.4,0.2c0.7,0.1,1.5,0.3,2.5,0.5c0.9,0.2,1.5,0.4,1.8,0.4l-0.1,2.1c-2.8-0.5-5-0.8-6.4-0.8
				c-0.9,0-1.6,0-2,0.1c-0.1-2.6-0.2-5-0.2-7.1v-6.3L248.2,68.5L248.2,68.5z"/>
		</g>
	</g>
</g>
</svg>
